<?xml version="1.0" encoding="UTF-8" standalone="no"?>
<!-- Created with Inkscape (http://www.inkscape.org/) -->

<svg
   xmlns:dc="http://purl.org/dc/elements/1.1/"
   xmlns:cc="http://creativecommons.org/ns#"
   xmlns:rdf="http://www.w3.org/1999/02/22-rdf-syntax-ns#"
   xmlns:svg="http://www.w3.org/2000/svg"
   xmlns="http://www.w3.org/2000/svg"
   xmlns:sodipodi="http://sodipodi.sourceforge.net/DTD/sodipodi-0.dtd"
   xmlns:inkscape="http://www.inkscape.org/namespaces/inkscape"
   width="144.99167mm"
   height="93.838882mm"
   viewBox="0 0 144.99167 93.838882"
   version="1.1"
   id="svg8"
   inkscape:version="0.92.3 (2405546, 2018-03-11)"
   sodipodi:docname="DCP-logo-white.svg">
  <defs
     id="defs2" />
  <sodipodi:namedview
     id="base"
     pagecolor="#ffffff"
     bordercolor="#666666"
     borderopacity="1.0"
     inkscape:pageopacity="0.0"
     inkscape:pageshadow="2"
     inkscape:zoom="1.4"
     inkscape:cx="184.90929"
     inkscape:cy="177.66775"
     inkscape:document-units="mm"
     inkscape:current-layer="layer1"
     showgrid="false"
     inkscape:window-width="1920"
     inkscape:window-height="1023"
     inkscape:window-x="0"
     inkscape:window-y="0"
     inkscape:window-maximized="1" />
  <metadata
     id="metadata5">
    <rdf:RDF>
      <cc:Work
         rdf:about="">
        <dc:format>image/svg+xml</dc:format>
        <dc:type
           rdf:resource="http://purl.org/dc/dcmitype/StillImage" />
        <dc:title></dc:title>
      </cc:Work>
    </rdf:RDF>
  </metadata>
  <g
     inkscape:label="Layer 1"
     inkscape:groupmode="layer"
     id="layer1"
     transform="translate(-145.97441,-195.65199)">
    <path
       style="fill:#ffffff;stroke-width:0.35277778;fill-opacity:1"
       d="m 216.01527,270.8001 c -0.59697,-0.50232 -1.0854,-1.2167 -1.0854,-1.5875 0,-0.83807 0.0692,-0.83667 1.49077,0.03 1.97783,1.20588 2.79979,0.85909 3.22071,-1.35881 0.19642,-1.035 0.14725,-1.14973 -0.39133,-0.91305 -0.3388,0.14888 -1.20993,0.34093 -1.93587,0.42676 -1.55919,0.18435 -1.95122,-0.39212 -1.38035,-2.02973 0.36256,-1.04004 0.34595,-1.06274 -0.778,-1.06274 -1.00471,0 -1.22799,0.18019 -1.78355,1.43941 -1.10547,2.5056 -4.25733,3.65413 -5.68839,2.07283 -0.56846,-0.62815 -0.60163,-0.91193 -0.25736,-2.20176 0.21737,-0.81437 0.33507,-1.54081 0.26157,-1.61431 -0.0735,-0.0735 -0.69226,-0.0289 -1.37502,0.0992 -1.08035,0.20268 -1.29037,0.41478 -1.61896,1.63507 -0.20766,0.77121 -0.27143,1.96794 -0.14171,2.65941 0.22915,1.22148 0.20701,1.25393 -0.77875,1.1413 -1.01222,-0.11564 -1.01447,-0.12148 -0.96015,-2.49716 l 0.0545,-2.38125 h -1.15818 c -0.95598,0 -1.23522,0.186 -1.59951,1.06547 -1.09492,2.64338 -4.48623,3.77016 -5.90782,1.96291 -0.47369,-0.60221 -0.81751,-0.75901 -1.17213,-0.53457 -0.76865,0.48649 -2.30643,0.38778 -2.77615,-0.17821 -0.23125,-0.27863 -0.53768,-0.94493 -0.68095,-1.48066 -0.25503,-0.9536 -0.28866,-0.92772 -1.60049,1.23179 -1.05746,1.74078 -1.49944,2.18312 -2.09627,2.09803 -1.04801,-0.14941 -1.13507,-1.63014 -0.39003,-6.63421 0.60736,-4.07938 0.96796,-5.29166 1.57402,-5.29166 0.79245,0 0.97056,1.30604 0.50517,3.70416 -0.26358,1.3582 -0.48507,2.86198 -0.4922,3.34173 -0.0118,0.79114 0.12857,0.71145 1.50855,-0.85681 1.93428,-2.19815 2.6287,-2.05937 2.78093,0.55577 0.13045,2.24095 0.6511,2.51116 2.01833,1.04753 0.55982,-0.59928 1.09704,-1.08961 1.19381,-1.08961 0.0968,0 0.73159,-0.55562 1.41069,-1.23472 1.43167,-1.43167 2.17452,-1.53535 3.31618,-0.46282 0.59409,0.55812 1.28056,0.77796 2.47856,0.79375 l 1.65691,0.0218 0.42596,-1.89401 c 0.48513,-2.15709 0.88653,-2.70718 1.73724,-2.38073 0.60253,0.23121 0.59573,0.64035 -0.0536,3.22751 l -0.2448,0.97537 1.90345,-0.23843 c 1.04689,-0.13114 2.42175,-0.50954 3.05524,-0.84089 0.9361,-0.48962 1.26643,-0.52066 1.76389,-0.16576 1.9266,1.3745 4.98979,1.41916 6.67033,0.0972 1.07285,-0.8439 2.32247,-0.9326 2.92421,-0.20755 0.82238,0.99091 -0.27514,8.43128 -1.42588,9.66647 -0.99365,1.06656 -2.80509,0.99862 -4.17811,-0.1567 z m -18.17828,-4.95905 c 1.00036,-1.0794 1.1223,-2.16498 0.27952,-2.48839 -0.73061,-0.28036 -2.23237,1.48562 -2.23489,2.6281 -0.002,1.07928 0.88437,1.01592 1.95537,-0.13971 z m 13.40555,0 c 1.00037,-1.0794 1.12231,-2.16498 0.27953,-2.48839 -0.73061,-0.28036 -2.23237,1.48562 -2.2349,2.6281 -0.002,1.07928 0.88437,1.01592 1.95537,-0.13971 z m 7.84216,-0.67404 c 0.48703,-0.34113 0.78014,-0.90912 0.77372,-1.49931 l -0.0103,-0.95013 -1.04799,1.15209 c -1.52774,1.67949 -1.35901,2.44859 0.28462,1.29735 z m 20.69915,3.34364 c 0.24116,-3.08272 0.22525,-3.18921 -0.42448,-2.84148 -0.37127,0.19869 -0.87985,0.60806 -1.13019,0.90969 -0.58568,0.70571 -2.44282,0.71715 -2.7116,0.0167 -0.16359,-0.42629 -0.44362,-0.32137 -1.41232,0.52917 -2.26595,1.98953 -4.05168,1.02873 -3.297,-1.77394 0.49306,-1.83111 3.06322,-4.57352 4.28624,-4.57352 1.10813,0 1.86304,1.29529 1.56905,2.69219 -0.11714,0.55658 -0.0702,1.23418 0.10444,1.50577 0.24891,0.38722 0.73197,0.10172 2.23831,-1.32292 1.99339,-1.88526 2.62272,-2.16618 2.94885,-1.3163 0.1534,0.39976 0.44489,0.32881 1.44927,-0.35277 2.08475,-1.41476 3.27545,-0.97405 3.27545,1.21232 v 1.21884 l 0.75893,-0.67204 c 1.22826,-1.08762 2.76884,-3.73322 2.76884,-4.75485 0,-1.25091 0.85276,-1.99502 1.5875,-1.38524 0.66471,0.55166 0.66471,1.7569 0,4.23333 -0.68714,2.56006 -0.66461,2.7368 0.20754,1.62803 0.40519,-0.51511 1.21867,-1.1858 1.80775,-1.49043 0.93643,-0.48424 1.13543,-0.48946 1.58341,-0.0415 0.2818,0.2818 0.60047,1.16921 0.70815,1.97201 0.11371,0.84782 0.38483,1.45965 0.64681,1.45965 0.24807,0 1.2466,-0.62885 2.21894,-1.39745 1.90905,-1.50901 3.36485,-2.06983 3.75102,-1.445 0.13247,0.21435 -0.0319,1.10388 -0.36523,1.97673 -0.33334,0.87285 -0.50179,1.69129 -0.37433,1.81876 0.12746,0.12746 0.7858,-0.0325 1.46297,-0.35538 0.86441,-0.41221 1.46898,-1.08792 2.02928,-2.26809 0.79627,-1.67715 1.73537,-2.20482 1.94907,-1.09515 0.062,0.32219 -0.52873,2.46532 -1.31285,4.7625 -1.25771,3.68466 -1.51979,4.17669 -2.22465,4.17669 -0.95936,0 -0.99492,-0.77203 -0.1268,-2.75328 0.57552,-1.31347 0.57323,-1.33421 -0.10705,-0.97014 -0.94777,0.50723 -2.69167,0.4689 -3.13656,-0.0689 -0.20062,-0.24254 -0.41849,-0.88571 -0.48416,-1.42927 l -0.11942,-0.9883 -1.21506,0.9001 c -2.24815,1.6654 -4.25299,1.0197 -4.25299,-1.36976 0,-1.36508 -0.50058,-1.10919 -2.19747,1.12334 -1.13863,1.49805 -1.76782,2.02847 -2.40619,2.02847 -0.93114,0 -1.00137,-0.30745 -0.60953,-2.66852 l 0.20868,-1.25742 -1.10707,1.03415 c -1.93284,1.80555 -4.86255,3.49594 -5.76125,3.32415 -0.71533,-0.13675 -0.82717,-0.0185 -0.82717,0.87448 0,1.4304 -0.59251,2.39733 -1.46903,2.39733 -0.71383,0 -0.73023,-0.10758 -0.4881,-3.20275 z m 4.69218,-3.71451 c 0.57596,-1.20781 0.45762,-1.82 -0.26544,-1.37312 -0.64659,0.39961 -2.46961,3.06063 -2.46961,3.60483 0,0.82743 2.08914,-0.87725 2.73505,-2.23171 z m -9.90747,-0.96483 c 0.28692,-0.55161 0.44888,-1.07571 0.35991,-1.16468 -0.24048,-0.24048 -2.27187,2.32275 -2.48416,3.13455 -0.16776,0.64154 -0.10726,0.63021 0.70959,-0.13281 0.49116,-0.45877 1.12775,-1.28545 1.41466,-1.83706 z m -59.70676,4.50665 c -0.25297,-1.34843 0.0174,-5.95796 0.40941,-6.97946 0.16503,-0.43005 0.0233,-0.58121 -0.5448,-0.58121 -0.59368,0 -0.74227,-0.17929 -0.65511,-0.79045 0.17372,-1.21805 1.83657,-1.81707 5.10073,-1.83745 3.21023,-0.02 4.36061,0.564 4.36061,2.21388 0,1.21787 -2.51613,3.56383 -4.99628,4.65839 l -1.967,0.8681 0.0421,1.76529 c 0.0373,1.5639 -0.0462,1.77785 -0.7316,1.87539 -0.6428,0.0915 -0.81499,-0.11021 -1.01802,-1.19248 z m 3.8342,-5.48382 c 1.51395,-0.75976 3.07275,-2.00114 3.07275,-2.44702 0,-0.39625 -2.0219,-0.68948 -3.17033,-0.45979 -0.84067,0.16813 -1.12553,0.46943 -1.40915,1.49049 -0.39686,1.42874 -0.45415,2.16169 -0.16896,2.16169 0.10474,0 0.8588,-0.33541 1.67569,-0.74537 z m 45.21579,5.66176 c -0.36061,-0.58349 0.20708,-5.86282 0.70343,-6.54163 0.56208,-0.76867 1.60354,-0.41104 1.60354,0.55065 0,0.71086 0.001,0.71087 1.14652,0.0124 1.30431,-0.79525 2.39839,-0.89621 3.01625,-0.27835 0.73143,0.73143 0.46534,1.25415 -0.75497,1.48308 -1.44375,0.27085 -2.43694,1.28467 -3.40708,3.47784 -0.72553,1.64017 -1.74213,2.21111 -2.30769,1.29602 z m -70.21967,-9.63195 c -0.10178,-0.26523 -0.13649,-7.76617 -0.0771,-16.66875 l 0.10793,-16.18652 0.91762,-1.95638 c 0.50468,-1.076 1.42741,-2.537 2.05051,-3.24667 1.13517,-1.29289 4.90458,-3.44 6.03917,-3.44 0.47036,0 0.64332,-0.40591 0.78027,-1.83114 0.14306,-1.48884 0.38329,-2.01639 1.28517,-2.82222 l 1.10922,-0.99109 h 7.08527 7.08527 l 1.19945,1.19945 c 0.97401,0.97401 1.19944,1.47129 1.19944,2.64583 v 1.44639 h 3.28396 c 2.10514,0 3.47703,-0.1583 3.82181,-0.44097 0.29582,-0.24254 1.89434,-2.2666 3.55227,-4.49792 1.65793,-2.23132 3.89737,-4.89038 4.97652,-5.90903 l 1.96209,-1.85208 h 17.86906 17.86907 l 2.20037,2.20486 c 1.21021,1.21267 3.58595,4.07017 5.27941,6.35 l 3.07904,4.14514 h 3.2851 3.2851 l 0.18758,-1.66425 c 0.14461,-1.28297 0.43928,-1.88914 1.28617,-2.64584 l 1.09858,-0.98158 h 7.04443 7.04442 l 1.10922,0.99109 c 0.90188,0.80583 1.14212,1.33338 1.28518,2.82222 0.15129,1.57453 0.28089,1.83162 0.92481,1.83458 1.3688,0.006 4.4227,1.70215 6.01427,3.33975 2.9325,3.01733 2.92682,2.97687 3.07303,21.88041 l 0.12823,16.58056 -1.14652,0.11055 -1.14653,0.11054 v -13.60429 -13.6043 h -12.89642 -12.89638 l 0.91864,1.49931 c 1.03588,1.69064 3.00191,5.43851 3.00191,5.72257 0,0.10255 -0.53015,0.18645 -1.1781,0.18645 -0.94399,0 -1.265,-0.19278 -1.61543,-0.97014 -1.80005,-3.99302 -7.53832,-10.88009 -11.79384,-14.15496 -13.4141,-10.32293 -31.94631,-11.53444 -46.44319,-3.03613 -6.19821,3.63349 -11.96018,9.44589 -15.21817,15.35135 -1.42789,2.58821 -1.62139,2.78995 -2.6853,2.79954 -0.69515,0.006 -1.14653,-0.16547 -1.14653,-0.43623 0,-0.41719 1.87326,-3.79618 3.32167,-5.99162 l 0.64003,-0.97014 h -12.91696 -12.91696 v 13.58194 13.58195 h -1.06941 c -0.58817,0 -1.15268,-0.21701 -1.25445,-0.48223 z m 30.26136,-29.41569 c 1.33068,-1.54949 1.78096,-1.4993 -13.4528,-1.4993 h -14.4847 v 1.05833 1.05833 h 13.70365 c 12.61395,0 13.74582,-0.0491 14.23385,-0.61736 z m 95.8875,-0.44097 v -1.05833 H 265.1347 250.42842 l 1.01395,1.05833 1.01394,1.05833 h 13.69234 13.69233 z m -90.0309,-5.38608 c 1.49512,-1.2161 3.3534,-2.60516 4.12951,-3.08681 l 1.41111,-0.87572 -7.40833,-0.17639 -7.40834,-0.17639 -0.17639,-2.15142 c -0.27561,-3.3616 -0.17905,-3.31663 -7.12194,-3.31663 -3.44562,0 -6.26623,0.15467 -6.65958,0.36519 -0.5551,0.29708 -0.68237,0.74959 -0.68237,2.42625 0,2.38096 -0.24345,2.67169 -2.51182,2.99963 -2.21689,0.32051 -4.68693,1.96784 -5.9596,3.97463 -0.57947,0.91373 -1.05358,1.78899 -1.05358,1.94503 0,0.15604 6.91266,0.28371 15.36147,0.28371 h 15.36146 z m 89.42716,1.59372 c -1.16908,-3.15427 -4.73862,-5.73264 -7.93638,-5.73264 -1.21896,0 -1.69044,-0.85939 -1.69044,-3.08125 0,-0.94409 -0.1905,-1.90703 -0.42333,-2.13986 -0.59554,-0.59554 -12.66891,-0.59554 -13.26445,0 -0.23283,0.23283 -0.42333,1.31233 -0.42333,2.39889 0,1.08656 -0.1905,2.16606 -0.42333,2.39889 -0.30161,0.30161 -2.49406,0.42333 -7.62492,0.42333 h -7.20159 l 2.06867,1.39272 c 1.13777,0.766 3.02117,2.19071 4.18534,3.16604 l 2.11666,1.77332 15.42296,0.009 c 14.54263,0.008 15.4099,-0.0263 15.19414,-0.6084 z m -76.9424,-8.93325 c 1.02024,-0.40214 3.52643,-1.14882 5.56931,-1.65929 3.26158,-0.815 4.44534,-0.93013 9.71155,-0.94453 6.60767,-0.0181 9.5027,0.42848 14.98273,2.31102 2.7802,0.95508 3.39939,1.0394 6.96149,0.94795 l 3.90986,-0.10037 -2.51811,-3.35139 c -1.38495,-1.84326 -3.32173,-4.18483 -4.30394,-5.20347 l -1.78585,-1.85209 h -16.82416 -16.82416 l -1.45594,1.31536 c -1.32874,1.20044 -4.64899,5.27373 -6.62002,8.12145 l -0.79356,1.14653 h 4.06791 c 3.28355,0 4.42558,-0.14098 5.92289,-0.73117 z m 54.69193,37.41672 c -1.28259,-0.782 -1.76462,-1.6245 -1.23338,-2.15574 0.2285,-0.22851 0.79038,-0.0866 1.63838,0.41372 0.8397,0.49543 1.58914,0.68656 2.14501,0.54704 0.83743,-0.21018 0.95946,-0.4217 1.41205,-2.44764 0.21863,-0.9787 0.20632,-0.98815 -0.57488,-0.44097 -0.43906,0.30753 -1.31557,0.55915 -1.9478,0.55915 -0.93346,0 -1.19132,-0.1666 -1.37198,-0.88639 l -0.22247,-0.8864 -1.14881,0.71001 c -1.45999,0.90233 -2.8727,0.91354 -3.42623,0.0272 -0.40776,-0.65293 -0.48507,-0.62979 -1.76789,0.52916 -1.54945,1.39984 -3.20577,1.63338 -3.79365,0.5349 -0.20229,-0.37797 -0.26549,-1.42985 -0.14307,-2.38125 0.18133,-1.40925 0.1381,-1.62788 -0.24979,-1.26322 -0.25798,0.24253 -1.07231,0.44097 -1.80962,0.44097 -1.20849,0 -1.34055,0.0904 -1.34055,0.91722 0,0.576 -0.45444,1.37166 -1.22153,2.13875 -1.03213,1.03214 -1.42868,1.20443 -2.55764,1.11125 -1.17348,-0.0968 -1.38736,-0.26056 -1.75717,-1.345 -0.23158,-0.67909 -0.43002,-1.04923 -0.44097,-0.82252 -0.0318,0.65806 -2.29501,1.88087 -3.48113,1.88087 -1.15343,0 -2.18323,-1.03543 -2.18323,-2.19516 0,-0.88464 -0.23219,-0.8059 -2.27825,0.77263 -2.26618,1.74835 -3.99065,2.48086 -5.84034,2.48086 -3.7633,0 -4.31219,-4.50463 -1.00649,-8.2601 2.51523,-2.85745 5.41098,-3.82672 6.49408,-2.17372 0.51188,0.78124 0.5118,0.94876 -0.001,1.94028 -0.34364,0.66452 -0.83548,1.08521 -1.26875,1.08521 -0.9063,0 -1.25652,-0.89937 -0.63966,-1.64264 0.68978,-0.83114 -2.15071,0.64768 -2.91365,1.51691 -1.08613,1.23744 -1.7586,2.98665 -1.65007,4.29209 0.0928,1.11576 0.24298,1.31727 1.05156,1.41074 1.16429,0.13458 3.11063,-0.83378 5.54756,-2.76006 1.02074,-0.80685 1.96225,-1.36043 2.09223,-1.23018 0.12997,0.13026 0.47574,-0.99045 0.76836,-2.49046 0.34211,-1.7537 0.74794,-2.86348 1.13682,-3.10878 1.15041,-0.72566 1.39171,0.14393 0.80884,2.91481 -0.69764,3.31648 -0.69961,5.29081 -0.006,5.55716 0.66738,0.25609 1.52103,-0.32911 4.407,-3.02114 1.26118,-1.17642 2.54946,-2.14009 2.86284,-2.14148 0.31339,-0.001 0.99503,0.33197 1.51477,0.7408 0.70399,0.55376 1.23344,0.68904 2.07605,0.53047 3.5737,-0.67256 3.75814,-0.67483 3.9982,-0.0493 0.12877,0.33559 0.0653,1.34806 -0.14109,2.24993 -0.20638,0.90187 -0.31381,1.70119 -0.23873,1.77627 0.40131,0.40131 1.92641,-1.20936 2.93256,-3.09708 1.47311,-2.76384 2.09512,-2.80643 2.23544,-0.15306 0.0585,1.10623 0.28713,2.06036 0.51142,2.13428 0.22309,0.0735 1.29465,-0.59045 2.38125,-1.4755 1.08659,-0.88504 1.97563,-1.52128 1.97563,-1.41385 0,0.10743 0.68863,-0.20825 1.5303,-0.7015 2.88315,-1.68964 4.10957,-0.97695 3.48622,2.02589 -0.21005,1.01189 -0.48756,2.63146 -0.61669,3.59904 -0.54036,4.04889 -2.78862,5.50163 -5.7346,3.70548 z m -16.15976,-5.02375 c 0.28238,-0.43656 0.62074,-1.23031 0.75193,-1.76389 0.20024,-0.81444 0.1253,-0.97014 -0.46697,-0.97014 -0.49438,0 -0.8753,0.4244 -1.27297,1.41825 -0.31211,0.78004 -0.56747,1.57379 -0.56747,1.76389 0,0.64778 1.04053,0.34802 1.55548,-0.44811 z m 19.18193,-0.81516 c 0.971,-0.68012 2.04532,-2.62442 1.45011,-2.62442 -0.47446,0 -2.78474,2.3622 -2.78474,2.84734 0,0.47662 0.44107,0.40295 1.33463,-0.22292 z m 5.60334,3.49039 c -0.38325,-0.38324 -0.27096,-2.79662 0.30719,-6.60188 0.5754,-3.78727 0.98832,-5.15738 1.55431,-5.15738 0.81221,0 0.99449,1.2857 0.52514,3.70417 -0.26357,1.35819 -0.48507,2.86197 -0.4922,3.34173 -0.0117,0.79114 0.12857,0.71144 1.50856,-0.85681 1.93428,-2.19815 2.6287,-2.05937 2.78093,0.55576 0.13045,2.24095 0.65109,2.51117 2.01833,1.04754 1.18731,-1.27102 1.79311,-1.38885 1.79311,-0.34878 0,1.14146 -2.19531,3.13973 -3.44931,3.13973 -1.17483,0 -1.76647,-0.54641 -2.15182,-1.98729 -0.25524,-0.95437 -0.28734,-0.92988 -1.58856,1.21217 -1.23034,2.02535 -2.1157,2.64102 -2.80568,1.95104 z m -81.73308,-0.47421 c -0.33227,-0.20536 -0.47846,-0.84394 -0.43289,-1.89099 l 0.0688,-1.58091 -1.31415,1.20702 c -1.4066,1.29193 -3.11728,1.62549 -3.48061,0.67867 -0.16358,-0.42628 -0.44361,-0.32137 -1.41231,0.52917 -2.26596,1.98953 -4.05169,1.02873 -3.29701,-1.77393 0.49307,-1.83111 3.06323,-4.57352 4.28625,-4.57352 1.10813,0 1.86304,1.29529 1.56904,2.69219 -0.40898,1.94325 0.26107,2.1207 1.99002,0.527 0.86835,-0.80042 1.74627,-1.4553 1.95094,-1.4553 0.20467,0 0.43456,-0.18731 0.51087,-0.41625 0.0821,-0.24618 0.40097,-0.31562 0.78054,-0.16997 0.52869,0.20288 0.60674,0.50938 0.4429,1.73917 -0.15853,1.18994 -0.12221,1.34971 0.17898,0.78733 0.70894,-1.32373 1.81448,-2.29306 2.61525,-2.29306 0.95445,0 1.16193,0.29308 1.69963,2.40086 0.2257,0.88474 0.60368,1.67306 0.83996,1.75182 0.23627,0.0788 1.32949,-0.83058 2.42936,-2.02075 1.40512,-1.52047 2.21644,-2.1329 2.72841,-2.05957 0.76261,0.10924 0.76598,0.13999 0.33064,3.01445 -0.20079,1.32573 -0.14802,1.4993 0.45581,1.4993 1.43574,0 3.6861,-1.86861 4.53177,-3.763 0.93366,-2.09153 2.22059,-3.12212 3.49821,-2.80146 1.77918,0.44655 1.34082,2.77858 -0.82147,4.37016 -1.31261,0.96616 -1.39609,1.48875 -0.23784,1.48875 1.69326,0 4.8068,-3.56353 5.8479,-6.69308 0.52651,-1.58268 1.49843,-2.26866 1.86412,-1.31568 0.10395,0.2709 -0.0413,1.58838 -0.32281,2.92773 -0.64921,3.08885 -0.52954,5.56154 0.27654,5.71449 0.32073,0.0608 1.13544,-0.37428 1.81047,-0.96697 1.45603,-1.27841 1.66335,-1.31898 1.66335,-0.32551 0,0.41365 -0.56693,1.28678 -1.25984,1.94028 -2.35713,2.22305 -4.73739,1.32222 -4.73739,-1.79292 v -1.41299 l -1.09008,1.32246 c -1.92181,2.33149 -4.81291,3.12899 -6.11746,1.68748 -0.60319,-0.66652 -0.64304,-0.66024 -2.24041,0.35278 -2.7882,1.76823 -5.01594,1.27828 -5.01594,-1.10315 0,-0.70695 -0.1153,-0.66564 -1.41212,0.50597 -1.5067,1.36121 -3.10211,1.68336 -3.85342,0.77808 -0.22717,-0.27372 -0.50613,-1.07133 -0.61991,-1.77245 -0.11378,-0.70113 -0.33603,-1.3546 -0.49389,-1.45216 -0.15787,-0.0976 -0.9267,0.68849 -1.70852,1.7468 -1.65954,2.24643 -1.83427,2.38415 -2.50169,1.97166 z m -6.10786,-4.35047 c 0.28691,-0.55161 0.44887,-1.07571 0.35991,-1.16468 -0.24049,-0.24048 -2.27187,2.32275 -2.48416,3.13455 -0.16777,0.64154 -0.10727,0.63021 0.70959,-0.13281 0.49115,-0.45877 1.12775,-1.28545 1.41466,-1.83706 z m 26.26742,-1.55472 c 0.4388,-0.55952 0.42633,-0.572 -0.1332,-0.13319 -0.58764,0.46086 -0.77452,0.75056 -0.48417,0.75056 0.0733,0 0.35107,-0.27782 0.61737,-0.61737 z m -41.5307,5.016 c -0.12328,-0.49117 0.0147,-2.19773 0.30665,-3.79236 0.36168,-1.9756 0.41718,-3.03982 0.17422,-3.3403 -0.75637,-0.93541 0.38728,-1.49941 3.03621,-1.49734 4.49405,0.004 6.57139,1.17591 6.57139,3.70873 0,1.57456 -1.93133,3.26091 -5.37784,4.6957 -3.34498,1.39252 -4.405,1.44328 -4.71063,0.22557 z m 5.68072,-2.59927 c 1.6641,-0.73611 2.78222,-2.08666 2.4482,-2.9571 -0.27234,-0.7097 -0.71726,-0.86753 -3.25493,-1.15463 l -2.08711,-0.23614 -0.21588,1.53884 c -0.11873,0.84636 -0.32631,2.07957 -0.46127,2.74048 -0.24532,1.20129 -0.24505,1.20158 0.89979,0.97261 0.62985,-0.12597 1.83189,-0.5328 2.6712,-0.90406 z m 27.51438,-4.26933 c -0.37295,-0.60343 0.10059,-2.01145 0.76182,-2.26519 0.91312,-0.35039 1.37205,0.33953 0.97564,1.46672 -0.35837,1.01902 -1.32625,1.46383 -1.73746,0.79847 z m -10.05385,-3.81722 c 0,-0.73068 3.84555,-5.79962 6.28883,-8.2895 4.64433,-4.73292 9.98103,-7.84246 16.64173,-9.69667 2.99272,-0.83311 3.97433,-0.93388 9.17222,-0.94161 4.53689,-0.007 6.40444,0.13721 8.46667,0.65262 5.02272,1.2553 10.09804,3.6883 14.11111,6.76455 3.41155,2.61516 7.74034,7.56779 9.31202,10.65405 l 0.58387,1.14652 h -1.19383 c -1.05503,0 -1.3429,-0.2245 -2.47585,-1.93084 -1.70672,-2.57052 -5.46772,-6.52069 -8.12823,-8.53707 -2.92779,-2.21896 -8.54359,-4.85837 -12.38792,-5.82229 -4.52319,-1.13414 -12.09726,-1.12162 -16.40173,0.0271 -8.29879,2.2147 -15.40025,7.14026 -20.01424,13.88184 -1.46137,2.13524 -1.75087,2.38125 -2.8022,2.38125 -0.64485,0 -1.17245,-0.13048 -1.17245,-0.28996 z"
       id="path826"
       inkscape:connector-curvature="0" />
  </g>
</svg>
